<svg id="visual" viewBox="0 0 900 600" width="900" height="600" xmlns="http://www.w3.org/2000/svg" xmlns:xlink="http://www.w3.org/1999/xlink" version="1.1"><rect x="0" y="0" width="900" height="600" fill="#001220"></rect><defs><linearGradient id="grad1_0" x1="33.3%" y1="0%" x2="100%" y2="100%"><stop offset="20%" stop-color="#715df2" stop-opacity="1"></stop><stop offset="80%" stop-color="#715df2" stop-opacity="1"></stop></linearGradient></defs><defs><linearGradient id="grad1_1" x1="33.3%" y1="0%" x2="100%" y2="100%"><stop offset="20%" stop-color="#715df2" stop-opacity="1"></stop><stop offset="80%" stop-color="#2651c0" stop-opacity="1"></stop></linearGradient></defs><defs><linearGradient id="grad1_2" x1="33.3%" y1="0%" x2="100%" y2="100%"><stop offset="20%" stop-color="#003f8a" stop-opacity="1"></stop><stop offset="80%" stop-color="#2651c0" stop-opacity="1"></stop></linearGradient></defs><defs><linearGradient id="grad1_3" x1="33.3%" y1="0%" x2="100%" y2="100%"><stop offset="20%" stop-color="#003f8a" stop-opacity="1"></stop><stop offset="80%" stop-color="#002a53" stop-opacity="1"></stop></linearGradient></defs><defs><linearGradient id="grad1_4" x1="33.3%" y1="0%" x2="100%" y2="100%"><stop offset="20%" stop-color="#001220" stop-opacity="1"></stop><stop offset="80%" stop-color="#002a53" stop-opacity="1"></stop></linearGradient></defs><defs><linearGradient id="grad2_0" x1="0%" y1="0%" x2="66.7%" y2="100%"><stop offset="20%" stop-color="#715df2" stop-opacity="1"></stop><stop offset="80%" stop-color="#715df2" stop-opacity="1"></stop></linearGradient></defs><defs><linearGradient id="grad2_1" x1="0%" y1="0%" x2="66.7%" y2="100%"><stop offset="20%" stop-color="#2651c0" stop-opacity="1"></stop><stop offset="80%" stop-color="#715df2" stop-opacity="1"></stop></linearGradient></defs><defs><linearGradient id="grad2_2" x1="0%" y1="0%" x2="66.7%" y2="100%"><stop offset="20%" stop-color="#2651c0" stop-opacity="1"></stop><stop offset="80%" stop-color="#003f8a" stop-opacity="1"></stop></linearGradient></defs><defs><linearGradient id="grad2_3" x1="0%" y1="0%" x2="66.7%" y2="100%"><stop offset="20%" stop-color="#002a53" stop-opacity="1"></stop><stop offset="80%" stop-color="#003f8a" stop-opacity="1"></stop></linearGradient></defs><defs><linearGradient id="grad2_4" x1="0%" y1="0%" x2="66.7%" y2="100%"><stop offset="20%" stop-color="#002a53" stop-opacity="1"></stop><stop offset="80%" stop-color="#001220" stop-opacity="1"></stop></linearGradient></defs><g transform="translate(900, 0)"><path d="M0 378.6C-27.9 303 -55.8 227.3 -118.5 205.2C-181.2 183.2 -278.7 214.6 -327.9 189.3C-377 164 -377.8 82 -378.6 0L0 0Z" fill="#001e38"></path><path d="M0 302.9C-22.3 242.4 -44.6 181.9 -94.8 164.2C-145 146.5 -223 171.7 -262.3 151.4C-301.6 131.2 -302.2 65.6 -302.9 0L0 0Z" fill="#00356e"></path><path d="M0 227.1C-16.7 181.8 -33.5 136.4 -71.1 123.1C-108.7 109.9 -167.2 128.7 -196.7 113.6C-226.2 98.4 -226.7 49.2 -227.1 0L0 0Z" fill="#0049a5"></path><path d="M0 151.4C-11.2 121.2 -22.3 90.9 -47.4 82.1C-72.5 73.3 -111.5 85.8 -131.1 75.7C-150.8 65.6 -151.1 32.8 -151.4 0L0 0Z" fill="#4c58da"></path><path d="M0 75.7C-5.6 60.6 -11.2 45.5 -23.7 41C-36.2 36.6 -55.7 42.9 -65.6 37.9C-75.4 32.8 -75.6 16.4 -75.7 0L0 0Z" fill="#715df2"></path></g><g transform="translate(0, 600)"><path d="M0 -378.6C28.4 -303.9 56.9 -229.2 119.5 -207C182.1 -184.8 279 -215 327.9 -189.3C376.7 -163.5 377.7 -81.8 378.6 0L0 0Z" fill="#001e38"></path><path d="M0 -302.9C22.7 -243.1 45.5 -183.4 95.6 -165.6C145.7 -147.8 223.2 -172 262.3 -151.4C301.4 -130.8 302.1 -65.4 302.9 0L0 0Z" fill="#00356e"></path><path d="M0 -227.1C17.1 -182.3 34.1 -137.5 71.7 -124.2C109.3 -110.9 167.4 -129 196.7 -113.6C226 -98.1 226.6 -49.1 227.1 0L0 0Z" fill="#0049a5"></path><path d="M0 -151.4C11.4 -121.6 22.7 -91.7 47.8 -82.8C72.9 -73.9 111.6 -86 131.1 -75.7C150.7 -65.4 151.1 -32.7 151.4 0L0 0Z" fill="#4c58da"></path><path d="M0 -75.7C5.7 -60.8 11.4 -45.8 23.9 -41.4C36.4 -37 55.8 -43 65.6 -37.9C75.3 -32.7 75.5 -16.4 75.7 0L0 0Z" fill="#715df2"></path></g></svg>