<?xml version="1.0" encoding="UTF-8"?> <svg xmlns="http://www.w3.org/2000/svg" id="Слой_4" data-name="Слой 4" viewBox="0 0 516.83 517.09"> <defs> <style>.cls-1{fill:#db6e63;}.cls-2{fill:#ef8473;}.cls-3{fill:#ffbbb2;}.cls-4{fill:#fc9e97;}.cls-5{fill:#fedbd5;}.cls-6{fill:#ffbf4d;}.cls-7{fill:#ffcf64;}.cls-8{fill:#ff8650;}.cls-9{fill:#ffb14a;}.cls-10,.cls-12{fill:#002649;}.cls-11{fill:#003a66;}.cls-12{opacity:0.32;}.cls-13{fill:#004068;}.cls-14{fill:#034d72;}.cls-15{fill:#00213a;}.cls-16{fill:#08103c;}.cls-17{fill:#ff4d4d;}.cls-18{fill:#012e5e;}.cls-19{fill:#aacef2;}.cls-20{fill:#e1eefe;}.cls-21,.cls-33,.cls-38,.cls-42{fill:#fff;}.cls-22{fill:#c2dbff;}.cls-23{fill:#0c5393;}.cls-24{fill:#06587c;}.cls-25{fill:#ff5e48;}.cls-26{fill:#ff4d3b;}.cls-27{fill:#0076e0;}.cls-28,.cls-41{fill:#1088ff;}.cls-29,.cls-32,.cls-39,.cls-40{fill:none;stroke-miterlimit:10;}.cls-29,.cls-32{stroke:#fff;stroke-width:2px;}.cls-30{fill:#ff4848;}.cls-31{fill:#ff6d66;}.cls-32,.cls-39,.cls-40{stroke-linecap:round;}.cls-33{opacity:0.08;}.cls-34{fill:#f79472;}.cls-35{fill:#4ea0f9;}.cls-36{fill:#83b9fc;}.cls-37{fill:#d8e8fe;opacity:0.21;}.cls-38{opacity:0.24;}.cls-39,.cls-40{stroke:#0373fa;}.cls-39{stroke-width:2.77px;}.cls-40{stroke-width:2.77px;}.cls-41{opacity:0.5;}.cls-42{opacity:0.04;}.cls-43{opacity:0.2;}</style> </defs> <title>image</title> <path class="cls-1" d="M242.63,168.81a3.93,3.93,0,0,1,.92.14c6.24,1.7,10.07,9.07,10.9,15.09a18,18,0,0,1-4.35,14.58c-2.27,2.44-7.69,5.79-10.94,3.32a6.4,6.4,0,0,1-1.88-3,75.31,75.31,0,0,1-4.2-19.45,14.72,14.72,0,0,1,.09-5.13C234.15,170.55,239,168.68,242.63,168.81Z"></path> <path class="cls-2" d="M254.45,184a21.77,21.77,0,0,0-5.55-11.81,23,23,0,0,1,3.12,8.66,18,18,0,0,1-4.34,14.59c-2.14,2.29-7,5.37-10.31,3.72a6.16,6.16,0,0,0,1.79,2.74c3.25,2.47,8.67-.88,10.94-3.32A18,18,0,0,0,254.45,184Z"></path> <circle class="cls-3" cx="186.99" cy="211.14" r="8.46"></circle> <circle class="cls-4" cx="186.99" cy="211.14" r="4.47"></circle> <circle class="cls-3" cx="243.8" cy="211.14" r="8.46"></circle> <circle class="cls-4" cx="243.8" cy="211.14" r="4.47"></circle> <path class="cls-1" d="M185.88,176c-4.41,2.29-7.31,7.27-7.79,12.32a16.56,16.56,0,0,0,3.23,11.36c2.13,2.8,7.78,6.89,11.39,4.42a6.21,6.21,0,0,0,1.62-1.87,30.64,30.64,0,0,0,4.6-19.45,10,10,0,0,0-2.21-5.95,7.48,7.48,0,0,0-5.43-2.14A11.53,11.53,0,0,0,185.88,176Z"></path> <path class="cls-2" d="M183.37,197.51a16.4,16.4,0,0,1,.16-19.94,16.27,16.27,0,0,0-5.44,10.73,16.56,16.56,0,0,0,3.23,11.36c2.13,2.8,7.78,6.89,11.39,4.42a6.21,6.21,0,0,0,1.62-1.87.25.25,0,0,0,0-.07C190.76,204.1,185.43,200.21,183.37,197.51Z"></path> <path class="cls-3" d="M172.18,313.31a16,16,0,0,0-27.62-8.87l-9,9.62,0,0-1.93-1.4L123.05,305q-10.56-7.74-21-15.61c-6.9-5.25-13.79-10.57-20.22-16l-.12-.09a9,9,0,0,0-12.46,13c6.17,6.77,12.39,13,18.68,19.31s12.62,12.4,19,18.52l9.56,9.15,4.81,4.55,2.4,2.27,1.21,1.14.3.28.23.2.33.26.67.51a19.3,19.3,0,0,0,2.92,1.72,18.94,18.94,0,0,0,13.31,1.08,19.17,19.17,0,0,0,6.14-3l2.37-1.95,5.08-4.17,10.18-8.35a19.3,19.3,0,0,0,1.55-1.46A16,16,0,0,0,172.18,313.31Z"></path> <path class="cls-5" d="M167.22,303.65a16,16,0,0,0-22.66.79l-8.21,8.79-.77.83,0,0-1.93-1.4L123.05,305q-10.56-7.74-21-15.61c-6.9-5.25-13.79-10.57-20.22-16l-.12-.09a9,9,0,0,0-14.56,4.82,8.89,8.89,0,0,0,2.1,4c6.17,6.77,12.39,13.05,18.68,19.31s12.62,12.4,19,18.52l9.56,9.15,4.81,4.55,2.4,2.27,1.21,1.14.3.28.23.2.33.26.67.51a19.3,19.3,0,0,0,2.92,1.72,18.94,18.94,0,0,0,13.31,1.08,19.17,19.17,0,0,0,6.14-3l2.37-2,1.8-1.48,3.28-2.69,10.18-8.35a19.3,19.3,0,0,0,1.55-1.46,15.17,15.17,0,0,0,1.35-1.67,15.7,15.7,0,0,0,2.82-7.19A15.91,15.91,0,0,0,167.22,303.65Z"></path> <path class="cls-6" d="M150.76,291.8l-12.55,11.56c-2.6,2.07.9,10.8,7.83,19.5s14.65,14.06,17.26,12l12.55-11.56Z"></path> <path class="cls-7" d="M149.59,322.86c-6.93-8.7-10.43-17.43-7.83-19.5l10.51-9.68-1.51-1.88-12.55,11.56c-2.6,2.07.9,10.8,7.83,19.5s14.65,14.06,17.26,12l0,0C159.72,333.43,154.46,329,149.59,322.86Z"></path> <ellipse class="cls-8" cx="163.3" cy="307.54" rx="6.03" ry="20.13" transform="translate(-156.03 168.71) rotate(-38.53)"></ellipse> <path class="cls-3" d="M369.31,278.23a8.84,8.84,0,0,0-2.71-4.67,9,9,0,0,0-11.87-.24l-.12.09c-6.43,5.41-13.32,10.73-20.22,16S320.47,299.84,313.44,305l-10.58,7.7-1.93,1.4,0,0-9-9.62a16,16,0,0,0-23.45,21.87,19.3,19.3,0,0,0,1.55,1.46l10.18,8.35,5.09,4.17,2.36,1.95a19.27,19.27,0,0,0,6.14,3,18.94,18.94,0,0,0,13.31-1.08,19.3,19.3,0,0,0,2.92-1.72l.67-.51.33-.26.23-.2.3-.28,1.21-1.14,2.4-2.27,4.81-4.55,9.56-9.15c6.36-6.12,12.7-12.27,19-18.52s12.52-12.54,18.68-19.31A9,9,0,0,0,369.31,278.23Z"></path> <path class="cls-5" d="M366.6,273.56a9,9,0,0,0-11.87-.24l-.12.09c-6.43,5.41-13.32,10.73-20.22,16S320.47,299.84,313.44,305l-10.58,7.7-1.93,1.4,0,0-9-9.62a16,16,0,0,0-27.63,9,15.94,15.94,0,0,0,4.18,9,19.3,19.3,0,0,0,1.55,1.46l10.18,8.35,5.09,4.17,2.36,2a19.27,19.27,0,0,0,6.14,3,18.94,18.94,0,0,0,13.31-1.08,19.3,19.3,0,0,0,2.92-1.72l.67-.51.33-.26.23-.2.3-.28,1.21-1.14,2.4-2.27,4.81-4.55,9.56-9.15c6.36-6.12,12.7-12.27,19-18.52s12.52-12.54,18.68-19.31a8.92,8.92,0,0,0,2.12-4.11A8.84,8.84,0,0,0,366.6,273.56Z"></path> <path class="cls-5" d="M390.57,260.55c-7.21,3.06-18.06,2.86-15.8-.9s-5.23,1.87-5.23,1.87l-10.79,15.21,7.43,5,16-3.08,11.34-4.84v-6.36Z"></path> <path class="cls-5" d="M411.26,249.92c-2,1.16-4.12,2.32-6.2,3.44s-4.2,2.22-6.32,3.28q-6.35,3.19-12.84,6h0A4,4,0,1,0,389,270c.13-.05.25-.12.37-.18q6.44-3.58,12.56-7.51c2.05-1.31,4.07-2.65,6.08-4s4-2.74,6-4.2a2.5,2.5,0,0,0-2.72-4.19Z"></path> <path class="cls-3" d="M414.57,250.59a2.44,2.44,0,0,0-.91-.76A2.5,2.5,0,0,1,413,253c-2,1.46-4,2.83-6,4.2s-4,2.7-6.08,4-4.41,2.76-6.65,4.1c.33.36.67.72,1,1.07q3.39-2,6.7-4.13c2.05-1.31,4.07-2.65,6.08-4s4-2.74,6-4.2A2.5,2.5,0,0,0,414.57,250.59Z"></path> <path class="cls-5" d="M419.17,254.82c-1.85,1.63-3.67,3.11-5.55,4.58s-3.8,2.89-5.76,4.26a135.87,135.87,0,0,1-12.18,7.68,4,4,0,0,1-3.91-7,3.26,3.26,0,0,1,.38-.18h0a130.37,130.37,0,0,0,12.23-6c2-1.11,4-2.27,5.92-3.47s3.9-2.48,5.7-3.75l.05,0a2.5,2.5,0,0,1,3.1,3.92Z"></path> <path class="cls-3" d="M419.56,251.5a2.59,2.59,0,0,0-.82-.73,2.52,2.52,0,0,1-.48,3.17c-1.85,1.63-3.66,3.1-5.55,4.58s-3.8,2.89-5.75,4.26a135.94,135.94,0,0,1-12.19,7.67,4,4,0,0,1-4.24-.22,4,4,0,0,0,5.15,1.11,135.87,135.87,0,0,0,12.18-7.68q2.94-2.06,5.76-4.26c1.88-1.47,3.7-2.95,5.55-4.58A2.52,2.52,0,0,0,419.56,251.5Z"></path> <path class="cls-5" d="M419.08,259.74c-1.88,1.51-3.72,2.89-5.62,4.28s-3.81,2.71-5.76,4q-5.83,3.91-12,7.37a4,4,0,0,1-3.91-7,3.49,3.49,0,0,1,.39-.19h0c4.12-1.75,8.2-3.67,12.21-5.77,2-1,4-2.13,5.95-3.26s3.93-2.3,5.78-3.48l.05,0a2.5,2.5,0,0,1,2.92,4.06Z"></path> <path class="cls-3" d="M419.61,256.44a2.47,2.47,0,0,0-1.22-1,2.51,2.51,0,0,1-.55,3.27c-1.88,1.51-3.72,2.9-5.62,4.28s-3.81,2.72-5.76,4q-5.83,3.92-12,7.38a4,4,0,0,1-3.8,0,4,4,0,0,0,5,1q6.19-3.45,12-7.37,2.93-2,5.76-4c1.9-1.39,3.74-2.77,5.62-4.28A2.52,2.52,0,0,0,419.61,256.44Z"></path> <path class="cls-5" d="M353.91,284.49a24.53,24.53,0,0,1,7.78-4.3,56.66,56.66,0,0,1,7.42-2c4.8-1,9.42-1.67,13.73-2.67a37.24,37.24,0,0,0,6.09-1.87,44.44,44.44,0,0,0,5.74-2.94,54.89,54.89,0,0,0,5.43-3.77c.87-.69,1.73-1.39,2.56-2.13s1.68-1.52,2.37-2.21a2.55,2.55,0,0,1,3.86,3.32l0,0a55.49,55.49,0,0,1-10.31,10.57,51.34,51.34,0,0,1-6.33,4.18,41.7,41.7,0,0,1-7.07,3c-4.71,1.57-9.3,2.72-13.57,4a53.51,53.51,0,0,0-6,2.19,14.36,14.36,0,0,0-4.29,2.73,5.51,5.51,0,0,1-7.91-7.67,4.38,4.38,0,0,1,.39-.36Z"></path> <path class="cls-3" d="M408.64,262.54a2.56,2.56,0,0,0-2.08-.71,2.57,2.57,0,0,1,0,3.06l0,0a55.49,55.49,0,0,1-10.31,10.57,50.71,50.71,0,0,1-6.34,4.18,41.6,41.6,0,0,1-7.06,3c-4.71,1.57-9.3,2.72-13.57,4a52.78,52.78,0,0,0-6,2.19c-1.8.8-3.62,1.44-4.56,2.41-1.31,1.36-2.74,2.81-5.08,5.18,2.18,1.59,5.73-1.88,7.66-3.87a14.36,14.36,0,0,1,4.29-2.73,53.51,53.51,0,0,1,6-2.19c4.27-1.29,8.86-2.44,13.57-4a41.7,41.7,0,0,0,7.07-3,51.34,51.34,0,0,0,6.33-4.18,55.49,55.49,0,0,0,10.31-10.57l0,0A2.56,2.56,0,0,0,408.64,262.54Z"></path> <path class="cls-7" d="M505.35,203.86a1,1,0,0,1-.63-.23l-8.36-7.15a2.85,2.85,0,0,0-2.81-.51l-2.27.81a1,1,0,1,1-.66-1.83l2.27-.81a4.8,4.8,0,0,1,4.73.86l8.36,7.15a1,1,0,0,1,.11,1.37A1,1,0,0,1,505.35,203.86Z"></path> <path class="cls-9" d="M505.57,203a1,1,0,0,1-.63-.23l-8.36-7.15a2.85,2.85,0,0,0-2.81-.51l-2.27.81a1,1,0,0,1-1.25-.58s0-.07,0-.1a1,1,0,0,0-.21,1,1,1,0,0,0,1.25.58l2.27-.81a2.85,2.85,0,0,1,2.81.51l8.36,7.15a1,1,0,0,0,1.37-.11,1,1,0,0,0,.19-.86A1,1,0,0,1,505.57,203Z"></path> <path class="cls-7" d="M515.7,214.85h0a3,3,0,0,0,0-4.69l-8-6.51-1.52,1.6,4.95,8.73A3,3,0,0,0,515.7,214.85Z"></path> <path class="cls-9" d="M516.45,213.16a3,3,0,0,1-4.51-.87l-4.62-8.18-1.08,1.14,4.95,8.73a3,3,0,0,0,4.51.87,3,3,0,0,0,1.09-2A3.63,3.63,0,0,1,516.45,213.16Z"></path> <circle class="cls-7" cx="507" cy="204.45" r="2.49"></circle> <path class="cls-9" d="M508.81,204.9a2.48,2.48,0,0,1-3.52.1,2.54,2.54,0,0,1-.7-1.17,2.49,2.49,0,0,0,4.22,2.33,2.45,2.45,0,0,0,.59-2.35A2.43,2.43,0,0,1,508.81,204.9Z"></path> <path class="cls-10" d="M491,195.55l-.38-.59-89.79,38.91-34.68,43.85a4.41,4.41,0,0,0,5.28,1.64l87.73-33.87a4.3,4.3,0,0,0,2-1.57l29.78-43.66A4.27,4.27,0,0,0,491,195.55Z"></path> <path class="cls-11" d="M490.62,195,459.4,240.71a5.26,5.26,0,0,1-2.4,1.92l-24.85,9.71L366.8,277.88a.56.56,0,0,1-.66-.84l28.3-39.82,4.49-6.32Z"></path> <path class="cls-12" d="M432.15,252.34l-65.37,25.55a.55.55,0,0,1-.65-.83l28.31-39.84h0c27.86-17.92,54.8-25.9,59.94-17.83C458.21,225.42,448.81,238.66,432.15,252.34Z"></path> <path class="cls-5" d="M384.59,258.08c-2.95,1.47-6,3.11-8.78,4.84-1.42.86-2.79,1.77-4.1,2.7a27.85,27.85,0,0,0-3.52,2.88l-.37.36-.4.43-.8.87c-.52.59-1,1.17-1.48,1.77a21,21,0,0,0-2.31,3.57c-.62,1.21-1,2.47-1.84,4.43a18.76,18.76,0,0,1-1.7,3.09c-.34.53-.74,1-1.12,1.47s-.79.87-1.19,1.3a5.52,5.52,0,1,1-8.05-7.55,5.78,5.78,0,0,1,.58-.53l.06,0a7.68,7.68,0,0,0,2.13-2.35c.68-1.14,1.58-3.08,2.77-4.82a31.45,31.45,0,0,1,3.88-4.66c.69-.69,1.4-1.33,2.1-2l1.07-.91.54-.45.62-.47a35.46,35.46,0,0,1,4.88-3.11q2.43-1.32,4.86-2.41c3.27-1.49,6.5-2.78,9.88-4a3,3,0,0,1,2.36,5.51Z"></path> <path class="cls-13" d="M431.17,246.58a94.61,94.61,0,0,1-20.34,10c-4.59,1.52-8.43,2.11-11,1.63a4.08,4.08,0,0,1-2.84-1.65L379.9,229.71,437.56,193l1.17,1.83,2.31,3.63,13.64,21.42C457.62,224.48,447.1,236.44,431.17,246.58Z"></path> <path class="cls-14" d="M436.56,197.93l1.18,1.83,2.31,3.63,13.63,21.42a2.82,2.82,0,0,1,.33.73c1.23-2.36,1.52-4.33.67-5.68L441,198.44l-2.31-3.63L437.56,193Z"></path> <path class="cls-11" d="M410.64,256.45l.19.16c-4.59,1.52-8.43,2.11-11,1.63a2.74,2.74,0,0,1-.49-.58l-17.12-26.88L393,229l17.12,26.88A2.6,2.6,0,0,0,410.64,256.45Z"></path> <path class="cls-10" d="M436.76,198.91c-3.1,5.74-11.59,13.71-22.71,20.79s-21.91,11.39-28.43,11.79c-2.82.18-4.83-.39-5.72-1.78-2.94-4.62,7.58-16.58,23.51-26.72s31.21-14.62,34.15-10C438.45,194.37,438.11,196.44,436.76,198.91Z"></path> <path class="cls-15" d="M436.76,198.91c-3.1,5.74-11.59,13.71-22.71,20.79s-21.91,11.39-28.43,11.79c3.1-5.74,11.59-13.71,22.7-20.78S430.25,199.3,436.76,198.91Z"></path> <path class="cls-14" d="M432.78,191.16v1c1.4,0,3.22.24,3.93,1.36s.35,2.75-.83,4.91c-3.14,5.81-11.71,13.64-22.37,20.43s-21.35,11.23-28,11.63l-.91,0c-1.38,0-3.19-.23-3.9-1.35-2.26-3.56,6.71-14.84,23.2-25.34,11.12-7.09,22.44-11.67,28.84-11.67v-1m0,0c-6.38,0-17.71,4.39-29.37,11.83-15.93,10.14-26.45,22.1-23.51,26.72.78,1.22,2.43,1.81,4.74,1.81l1,0c6.52-.4,17.32-4.72,28.43-11.79s19.61-15,22.71-20.79c1.35-2.47,1.69-4.54.8-5.93-.79-1.23-2.46-1.82-4.78-1.82Z"></path> <path class="cls-6" d="M282.85,290.8l12.55,11.56c2.6,2.07-.9,10.8-7.83,19.5s-14.65,14.06-17.25,12l-12.55-11.56Z"></path> <ellipse class="cls-8" cx="270.31" cy="306.54" rx="20.13" ry="6.03" transform="translate(-137.88 327.02) rotate(-51.47)"></ellipse> <path class="cls-6" d="M280.25,292.63s-19.61-20.88-42.56-28H193.1s-18.35,8.89-39.74,29c-2.26,1.8.78,9.37,6.78,16.9,5.37,6.75,11.29,11.17,14.09,10.74h0l0,0a1.52,1.52,0,0,0,1.23-.82l2.65-1.77s-2.31,26.92-1,48.93l82.14-1c.07-25.15.07-46.2.07-46.2h0c2.81.43,8.77-4.12,14.14-10.87C279.47,302,282.51,294.43,280.25,292.63Z"></path> <path class="cls-6" d="M259.3,366.6c.07-25.15.07-46.2.07-46.2"></path> <path class="cls-7" d="M153.36,298.29a277.65,277.65,0,0,1,44.2-33.51l35.12.87c22.95,7.15,47.57,31.64,47.57,31.64a1.51,1.51,0,0,1,.21.23c.75-2.36.74-4.14-.21-4.89,0,0-19.61-20.88-42.56-28H193.1s-18.35,8.89-39.74,29c-1,.75-1,2.53-.21,4.89A2.29,2.29,0,0,1,153.36,298.29Z"></path> <path class="cls-7" d="M179.76,322.25c-1.11,8.08-3,24.35-2.82,39.22a307.86,307.86,0,0,1,3.58-39.73Z"></path> <path class="cls-7" d="M237.55,264.28l-2.05-5H195.45l-2.2,4.95a.5.5,0,0,0-.15.34c0,1.64,10,3,22.29,3s22.3-1.33,22.3-3A.49.49,0,0,0,237.55,264.28Z"></path> <ellipse class="cls-8" cx="215.47" cy="259.31" rx="20.02" ry="2.97"></ellipse> <path class="cls-3" d="M201.14,240.94v17.95c0,1.06,6.36,1.92,14.28,1.92s14.34-.86,14.34-1.92V240.94Z"></path> <path class="cls-5" d="M245.14,215.67c0,20.49-13.32,37.09-29.75,37.09s-29.74-16.6-29.74-37.09a106.69,106.69,0,0,1,6.95-37.1h47.89S245.14,207.61,245.14,215.67Z"></path> <path class="cls-3" d="M215.39,249.85c-16.16,0-29.3-16.08-29.72-36.1,0,.64,0,1.28,0,1.92,0,20.49,13.31,37.09,29.74,37.09s29.75-16.6,29.75-37.09c0-.38,0-.82,0-1.29C244.42,234.11,231.38,249.85,215.39,249.85Z"></path> <path class="cls-2" d="M193.58,140.55a18.55,18.55,0,0,0-10.19,4c-5.88,4.67-7.22,13-5.37,20.54,1.68,6.83,7,10.69,13.1,14.2s12.25,4.06,19.26,4.62c9.81.78,22.24,2.42,29.37-5.45.91-1,2-1.55,2.69-2.78,2.95-5.12,3.88-11.83.35-16.75a12.44,12.44,0,0,0-5.66-4.27c-6.89-2.73-14.74-.71-21.53-3.77-4.45-2-7.7-6.05-12-8.35A18.25,18.25,0,0,0,193.58,140.55Z"></path> <path class="cls-1" d="M214.05,180.88c-7-.55-14.07-2.08-20.16-5.6s-11.15-9.2-12.83-16a19.61,19.61,0,0,1,2.34-14.64,20,20,0,0,0-7.17,20.17c1.67,6.83,6.73,12.52,12.83,16s13.15,5.05,20.16,5.6c9.8.79,23.66.56,30.79-7.31a20,20,0,0,0,2.43-3.37C234.91,181.45,222.86,181.59,214.05,180.88Z"></path> <rect class="cls-3" x="212.64" y="207.85" width="5.61" height="9.8" rx="2.81"></rect> <rect class="cls-16" x="201.14" y="204.84" width="4.63" height="7.31" rx="2.32"></rect> <rect class="cls-16" x="226.12" y="204.84" width="4.63" height="7.31" rx="2.32"></rect> <path class="cls-1" d="M206.24,201.49a1.41,1.41,0,0,0,.94-2.47,5,5,0,0,0-7.81,1.27.8.8,0,0,0,.69,1.2Z"></path> <path class="cls-1" d="M224.5,201.49a1.41,1.41,0,0,1-.94-2.47,5,5,0,0,1,7.81,1.27.8.8,0,0,1-.69,1.2Z"></path> <path class="cls-17" d="M244.17,201.84h-1.8A12,12,0,0,0,219.32,203a12.77,12.77,0,0,0-4-.61,12.62,12.62,0,0,0-3.81.56,12,12,0,0,0-23-1.09h-1.9a1,1,0,0,0,0,1.94h1.32a13.15,13.15,0,0,0-.33,2.9c0,7.11,5.49,12.89,12.24,12.89s12.24-5.78,12.24-12.89a13.55,13.55,0,0,0-.14-1.82,11.64,11.64,0,0,1,7,.06,12.79,12.79,0,0,0-.13,1.76c0,7.11,5.49,12.89,12.24,12.89s12.24-5.78,12.24-12.89a13.15,13.15,0,0,0-.33-2.9h1.22a1,1,0,0,0,0-1.94Zm-44.35,15.79c-5.68,0-10.29-4.92-10.29-10.95s4.61-11,10.29-11,10.3,4.92,10.3,11S205.5,217.63,199.82,217.63Zm31.22,0c-5.68,0-10.3-4.92-10.3-10.95s4.62-11,10.3-11,10.29,4.92,10.29,11S236.71,217.63,231,217.63Z"></path> <path class="cls-16" d="M227.59,224.36a8.47,8.47,0,0,1-5.19,4.83,7.93,7.93,0,0,1-3.52.4,6.39,6.39,0,0,1-3.33-1.36.93.93,0,0,1-.12-1.31.92.92,0,0,1,1.23-.18h0a5,5,0,0,0,4.83.17,5.74,5.74,0,0,0,3.23-3.54,1.5,1.5,0,0,1,2.9.8.88.88,0,0,1-.05.15Z"></path> <path class="cls-18" d="M119.32,367.33l3.69-.8,3.34-.67c2.2-.43,4.38-.83,6.56-1.22,4.34-.75,8.66-1.47,13-2.09q12.93-1.86,25.8-3.23t25.74-2.27c4.29-.34,8.58-.61,12.87-.87,2.14-.13,4.27-.3,6.46-.35a63.64,63.64,0,0,1,6.5.25c17.14,1.32,33.93,3,50.8,4.75,8.42.9,16.84,1.83,25.29,2.86s16.88,2.18,25.56,3.52a19,19,0,0,1-3.36,37.84h-.21c-8-.19-16.26-.21-24.52-.18s-16.56.06-24.86.17c-16.57.22-33.25.59-49.57,1.28-2,.08-4.07.17-6.06.08l-6.09-.39c-4.09-.27-8.17-.54-12.25-.74-8.16-.47-16.31-.76-24.46-1s-16.26-.33-24.33-.26q-6.06,0-12,.21c-2,.07-4,.14-5.91.23l-5.4.31-1.48.08a19,19,0,0,1-5.05-37.51Z"></path> <path class="cls-10" d="M321.54,392.17h-.21c-8-.19-16.26-.21-24.52-.18s-16.56.06-24.86.17c-16.57.22-33.25.59-49.57,1.28-2,.08-4.07.17-6.06.08l-6.09-.39c-4.09-.27-8.17-.53-12.25-.74-8.16-.47-16.31-.76-24.46-1s-16.26-.33-24.33-.26q-6.06,0-12,.21c-2,.07-4,.14-5.91.23l-5.4.31-1.48.08a19,19,0,0,1-18.92-12.49,18.95,18.95,0,0,0,18.92,25.38l1.48-.08,5.4-.31c1.95-.09,3.93-.16,5.91-.23q6-.18,12-.21,12.1-.11,24.33.26c8.15.24,16.3.53,24.46,1,4.08.2,8.16.47,12.25.74l6.09.39c2,.09,4,0,6.06-.08,16.32-.69,33-1.06,49.57-1.28q12.45-.17,24.86-.17c8.26,0,16.53,0,24.52.18h.21a19,19,0,0,0,18.36-25.47A19.07,19.07,0,0,1,321.54,392.17Z"></path> <path class="cls-19" d="M277,363.14h0a12.78,12.78,0,0,1-2.53,7.63l-10.84,14.54L259,380.7Z"></path> <path class="cls-20" d="M215.91,381.11h45.52a2.91,2.91,0,0,0,2.25-1.07l13-16.06a1.23,1.23,0,0,0-.95-2H230.91Z"></path> <path class="cls-13" d="M207.16,385.17h45.52a2.9,2.9,0,0,0,2.25-1.08l13-16.06a1.22,1.22,0,0,0-.95-2H222.16Z"></path> <path class="cls-20" d="M261.43,381.11H172.56a2.73,2.73,0,0,1-2.69-2.3l-9.13-57.6a2.72,2.72,0,0,1,2.69-3.16H252.3a2.73,2.73,0,0,1,2.69,2.3L264.12,378A2.72,2.72,0,0,1,261.43,381.11Z"></path> <path class="cls-21" d="M264.12,378,255,320.35a2.73,2.73,0,0,0-2.69-2.3H163.43a2.72,2.72,0,0,0-2.71,2.81,3,3,0,0,1,.8-.13h88.86a2.73,2.73,0,0,1,2.69,2.3l9.14,57.6c0,.12,0,.23,0,.35A2.73,2.73,0,0,0,264.12,378Z"></path> <rect class="cls-22" x="171.13" y="381.11" width="93.02" height="5.15" rx="2.57"></rect> <path class="cls-5" d="M77.73,276.73l-7.43,5-16-3.09-9.4-4-1.94-.83v-6.36l3-6.89a28.83,28.83,0,0,0,10.88,2.13c3.66-.05,6.12-1,4.93-3-2.25-3.73,5.23,1.87,5.23,1.87Z"></path> <path class="cls-5" d="M87.78,285.53l-.15.17a5.5,5.5,0,0,1-7.61.58,6.11,6.11,0,0,1-.52-.49c-.41-.44-.82-.85-1.21-1.32A16.65,16.65,0,0,1,77.16,283a18.41,18.41,0,0,1-1.71-3.13c-.42-1-.7-1.77-1-2.51s-.54-1.32-.86-1.93a22.35,22.35,0,0,0-2.36-3.62c-.5-.59-1-1.2-1.53-1.79l-1.8-1.94A64.29,64.29,0,0,1,61.36,259c-1.9-3.07-3.63-6.13-5.32-9.33a3,3,0,0,1,5.14-3.1l0,.05c1.91,2.78,4,5.58,6.07,8.22A56.31,56.31,0,0,0,73.85,262l2,1.68c.72.6,1.42,1.29,2.13,2a31,31,0,0,1,4,4.69A28,28,0,0,1,83.53,273c.46.84.87,1.66,1.22,2.23a7.16,7.16,0,0,0,1,1.34c.15.19.37.35.54.53l.64.53.13.11A5.51,5.51,0,0,1,87.78,285.53Z"></path> <path class="cls-3" d="M52.7,267.87A4,4,0,0,1,47.45,270c-.13-.05-.26-.12-.38-.18q-6.42-3.57-12.55-7.51-3.08-2-6.08-4c-2-1.37-4-2.74-6-4.2a2.5,2.5,0,0,1,1.85-4.49,2.67,2.67,0,0,1,.86.3l0,0c2,1.16,4.11,2.32,6.2,3.44s4.2,2.22,6.32,3.28q6.34,3.19,12.84,6h0A4,4,0,0,1,52.7,267.87Z"></path> <path class="cls-5" d="M52.7,267.87a4,4,0,0,1-1,1.38,3.85,3.85,0,0,1-1.85-.31c-.13-.05-.26-.12-.38-.18q-6.42-3.57-12.56-7.51-3.06-2-6.08-4c-2-1.37-4-2.74-6-4.19a2.51,2.51,0,0,1-.57-3.46,2.67,2.67,0,0,1,.86.3l0,0c2,1.16,4.11,2.32,6.2,3.44s4.2,2.22,6.32,3.28q6.34,3.19,12.84,6h0A4,4,0,0,1,52.7,267.87Z"></path> <path class="cls-3" d="M46.44,269.41a4,4,0,0,1-.72,1.13h0a4,4,0,0,1-4.53,1c-.13-.06-.26-.12-.38-.19a136,136,0,0,1-12.19-7.68q-2.92-2.06-5.75-4.26c-1.89-1.47-3.7-2.95-5.55-4.58a2.5,2.5,0,0,1,3.08-3.93l.07.05c1.8,1.27,3.76,2.55,5.69,3.75s3.92,2.36,5.92,3.47a130.53,130.53,0,0,0,12.24,6h0A4,4,0,0,1,46.44,269.41Z"></path> <path class="cls-5" d="M55.45,272.37c-.18.43-9.44-2.15-9.73-1.83h0a4,4,0,0,1-2.43-.23,2.35,2.35,0,0,1-.39-.19,135.94,135.94,0,0,1-12.19-7.67c-1.95-1.37-3.87-2.8-5.75-4.26s-3.7-2.95-5.55-4.58a2.5,2.5,0,0,1-.49-3.17,2.48,2.48,0,0,1,1.48.45l.07.05c1.8,1.27,3.76,2.55,5.69,3.75s3.92,2.36,5.92,3.47a130.53,130.53,0,0,0,12.24,6h0C46.36,265,56.31,270.33,55.45,272.37Z"></path> <path class="cls-3" d="M46.44,273.48l0,.08a4,4,0,0,1-5.21,2,2.81,2.81,0,0,1-.39-.19q-6.19-3.45-12-7.37c-1.95-1.3-3.86-2.65-5.75-4s-3.75-2.77-5.62-4.28a2.5,2.5,0,0,1-.38-3.52,2.52,2.52,0,0,1,3.29-.54l.06,0c1.84,1.19,3.82,2.36,5.77,3.48s3.95,2.22,6,3.26c4,2.1,8.08,4,12.21,5.77h0A4,4,0,0,1,46.44,273.48Z"></path> <path class="cls-5" d="M46.44,273.48l0,.08a4,4,0,0,1-3.83.39,2.93,2.93,0,0,1-.4-.19q-6.18-3.45-12-7.38-2.92-2-5.76-4c-1.9-1.39-3.74-2.77-5.61-4.28a2.49,2.49,0,0,1-.85-2.57,2.47,2.47,0,0,1,2.38.16l.06,0c1.84,1.19,3.82,2.36,5.77,3.48s3.95,2.22,6,3.26c4,2.1,8.08,4,12.21,5.77h0A4,4,0,0,1,46.44,273.48Z"></path> <path class="cls-3" d="M75.61,293.06c-3.86-3.71-8.56-4.83-10.68-5.49-4.27-1.33-8.88-2.4-13.59-3.94a48.72,48.72,0,0,1-7.11-2.9,51.46,51.46,0,0,1-6.47-4A61.2,61.2,0,0,1,32,272c-.91-.84-1.8-1.69-2.66-2.58s-1.67-1.76-2.55-2.81a2.55,2.55,0,0,1,.31-3.58,2.46,2.46,0,0,1,1.39-.58,2.49,2.49,0,0,1,1.92.62l.21.18a64.42,64.42,0,0,0,5.34,4.1,59.47,59.47,0,0,0,5.68,3.54,44,44,0,0,0,5.88,2.75c1,.34,2,.7,3,1s2.07.55,3.14.79c4.32.95,9,1.53,13.75,2.58a53.68,53.68,0,0,1,7.43,2.07,25.07,25.07,0,0,1,7.74,4.4l.24.21c1.3,1.12-3.48,2.22-5.83,4.43C75.46,290.55,76.54,294,75.61,293.06Z"></path> <path class="cls-5" d="M83.76,292a5.52,5.52,0,0,1-6-.81,6.14,6.14,0,0,1-.45-.43,13.68,13.68,0,0,0-4.25-2.82,46.93,46.93,0,0,0-6-2.22c-4.27-1.33-8.88-2.41-13.59-3.94a49.27,49.27,0,0,1-7.1-2.9,52.31,52.31,0,0,1-6.48-4,61.2,61.2,0,0,1-5.76-4.71c-.91-.84-1.8-1.7-2.65-2.59s-1.67-1.76-2.55-2.8a2.5,2.5,0,0,1-.51-2.29,2.49,2.49,0,0,1,1.92.62l.21.18a64.42,64.42,0,0,0,5.34,4.1,59.47,59.47,0,0,0,5.68,3.54,44,44,0,0,0,5.88,2.75c1,.34,2,.7,3,1s2.07.55,3.14.79c4.32.95,9,1.53,13.75,2.58a53.68,53.68,0,0,1,7.43,2.07,25.07,25.07,0,0,1,7.74,4.4l.24.21A5.53,5.53,0,0,1,83.76,292Z"></path> <path class="cls-3" d="M233.78,426l8.28,3.6,33.58,14.59a12.15,12.15,0,0,1-9.22,22.47L232.19,453.4l-7.51-2.9a45.9,45.9,0,0,1,3.3-13.57A49.25,49.25,0,0,1,233.78,426Z"></path> <path class="cls-13" d="M124.53,369.19a129.35,129.35,0,0,1,15.18,6.13c2.48,1.1,4.9,2.26,7.31,3.45l7.18,3.67c4.76,2.46,9.42,5.13,14.19,7.54,2.36,1.24,4.71,2.53,7.1,3.73l7.13,3.64c9.53,4.8,19.09,9.48,28.71,13.89,4.81,2.18,9.62,4.39,14.42,6.44l7.17,3,3.52,1.43,1.71.69.8.32.38.16.23.11,2.45,1.19a16.92,16.92,0,0,1-10.58,31.82l-2.59-.49-2.27-.47c-1.52-.31-2.94-.67-4.41-1-2.88-.72-5.76-1.43-8.55-2.27-5.65-1.6-11.16-3.39-16.62-5.32-10.91-3.85-21.52-8.27-32-13l-7.77-3.66c-2.58-1.24-5.11-2.56-7.67-3.83q-7.66-3.85-15.1-8.07c-2.49-1.39-4.91-2.91-7.31-4.45s-4.77-3.12-7.1-4.76-4.59-3.4-6.82-5.2-4.42-3.66-6.5-5.67A17.41,17.41,0,0,1,124.09,369Z"></path> <path class="cls-23" d="M242,424.61l-2.45-1.19-.23-.11-.38-.16-.8-.32-1.71-.69-3.52-1.43-7.17-3c-4.8-2.05-9.61-4.26-14.42-6.44-9.62-4.41-19.18-9.09-28.71-13.89l-7.13-3.64c-2.39-1.2-4.74-2.49-7.1-3.73-4.77-2.41-9.43-5.08-14.19-7.54L147,378.77c-2.41-1.19-4.83-2.35-7.31-3.45a129.35,129.35,0,0,0-15.18-6.13l-.44-.15a17.45,17.45,0,0,0-15,2.21,17.35,17.35,0,0,1,10.85-.13l.45.14a130.76,130.76,0,0,1,15.18,6.13c2.47,1.1,4.9,2.27,7.31,3.46l7.18,3.66c4.76,2.46,9.41,5.13,14.18,7.54,2.37,1.24,4.72,2.53,7.1,3.73l7.14,3.65c9.52,4.79,19.09,9.47,28.71,13.89,4.81,2.17,9.62,4.38,14.42,6.43l7.17,3,3.51,1.43,1.71.69.8.32.39.16.23.11,2.45,1.2A16.89,16.89,0,0,1,240,455.82a16.9,16.9,0,0,0,2-31.21Z"></path> <path class="cls-18" d="M235.48,449.73l-2.59-.49-2.27-.47c-1.52-.31-2.94-.67-4.42-1-2.88-.72-5.75-1.43-8.55-2.27-5.64-1.6-11.16-3.39-16.62-5.32-10.91-3.85-21.52-8.27-31.94-13l-7.77-3.66c-2.59-1.24-5.12-2.56-7.68-3.83q-7.65-3.86-15.1-8.07c-2.49-1.39-4.9-2.91-7.3-4.45s-4.78-3.11-7.11-4.76-4.59-3.4-6.82-5.2-4.41-3.66-6.5-5.67a17.41,17.41,0,0,1-4.44-18l-.05.05a17.4,17.4,0,0,0,.45,24.62c2.08,2,4.27,3.86,6.5,5.67s4.48,3.56,6.82,5.2,4.71,3.22,7.1,4.76,4.82,3.06,7.31,4.45q7.44,4.22,15.1,8.07c2.56,1.27,5.09,2.59,7.67,3.83l7.77,3.66c10.43,4.77,21,9.19,32,13,5.46,1.93,11,3.72,16.62,5.32,2.79.84,5.67,1.55,8.55,2.27,1.47.35,2.89.71,4.41,1l2.27.47,2.59.49a16.93,16.93,0,0,0,18.36-9.2,15.76,15.76,0,0,0,.88-2.24A16.94,16.94,0,0,1,235.48,449.73Z"></path> <path class="cls-13" d="M337.72,398c-6,6.66-12.9,11.88-20.12,16.63s-14.81,8.94-22.4,13.12-15.32,8.15-23.21,11.87c-3.95,1.87-7.94,3.65-12,5.36-2,.87-4.08,1.68-6.14,2.5-1,.41-2.08.81-3.15,1.19l-3.35,1.2A17,17,0,0,1,231.65,420l1.32-.94c.64-.46,1.57-1,2.39-1.58s1.71-1.11,2.56-1.64l5.21-3.32,10.51-6.63q10.58-6.6,21.23-13.15c7.11-4.35,14.21-8.75,21.41-13,3.63-2.07,7.32-4.05,11.16-5.8a75.73,75.73,0,0,1,12-4.59l.45-.13a17.63,17.63,0,0,1,21.71,12.31A17.82,17.82,0,0,1,337.72,398Z"></path> <path class="cls-23" d="M230.76,440.46a17.06,17.06,0,0,1,6.09-19.59l1.32-.94c.64-.46,1.57-1,2.39-1.57l2.56-1.65,5.21-3.32,10.51-6.63q10.57-6.6,21.23-13.15c7.11-4.35,14.21-8.75,21.41-13,3.63-2.07,7.32-4.05,11.16-5.8a77.73,77.73,0,0,1,12-4.59l.45-.13a17.72,17.72,0,0,1,5-.63,17.53,17.53,0,0,0-10.16-.23l-.45.13a75.73,75.73,0,0,0-12,4.59c-3.84,1.75-7.53,3.73-11.16,5.8-7.2,4.25-14.3,8.65-21.41,13s-14.18,8.75-21.23,13.15l-10.51,6.63-5.21,3.32c-.85.53-1.72,1.1-2.56,1.64s-1.75,1.12-2.39,1.58l-1.32.94a17,17,0,0,0,9.79,30.86A17,17,0,0,1,230.76,440.46Z"></path> <path class="cls-18" d="M341.58,381.54a17.6,17.6,0,0,0-9.44-11.23,17.55,17.55,0,0,1,3.2,6.3,17.83,17.83,0,0,1-3.86,16.47c-6,6.66-12.9,11.88-20.12,16.62s-14.81,8.95-22.4,13.13S273.64,431,265.75,434.7c-3.95,1.87-7.94,3.65-12,5.35-2,.88-4.08,1.69-6.14,2.5-1.05.41-2.08.81-3.15,1.2l-3.35,1.2a17,17,0,0,1-12.89-.58,17,17,0,0,0,19.13,5.51l3.35-1.2c1.07-.38,2.1-.78,3.15-1.19,2.06-.82,4.13-1.63,6.14-2.5,4.06-1.71,8.05-3.49,12-5.36,7.89-3.72,15.6-7.7,23.21-11.87s15.08-8.52,22.4-13.12,14.15-10,20.12-16.63A17.82,17.82,0,0,0,341.58,381.54Z"></path> <path class="cls-13" d="M247.06,432.75c-4.14-9.95-10-17-13.09-15.69,0,0-8.57,0-17.62,8.37l15,36S242.1,460,249,453.1C252.06,451.81,251.21,442.7,247.06,432.75Z"></path> <path class="cls-10" d="M231.37,461.46c-1.75.73-4.38-1.2-7.09-4.82-.19-.26-.39-.52-.58-.8-.78-1.1-1.55-2.34-2.32-3.68a59.45,59.45,0,0,1-3.11-6.39,47.53,47.53,0,0,1-3.71-13.85c0-.36,0-.72-.05-1.05-.08-2.89.52-4.89,1.84-5.44s3,.33,4.84,2.19c.34.33.67.69,1,1.08a47.57,47.57,0,0,1,7.25,12.42,58.38,58.38,0,0,1,2.3,6.53,43,43,0,0,1,1,4.26c.1.51.17,1,.24,1.48C233.57,457.68,233.07,460.76,231.37,461.46Z"></path> <path class="cls-18" d="M250.19,442.7c-.12,2.15-.71,3.62-1.82,4.08-6.87,6.9-17.61,8.37-17.61,8.37l.6,6.31S242.1,460,249,453.1C251,452.27,251.31,448.17,250.19,442.7Z"></path> <path class="cls-13" d="M247.06,432.75c-4.14-9.95-10-17-13.09-15.69,0,0-8.57,0-17.62,8.37h0c1.48-.62,3.59.67,5.85,3.27a47.57,47.57,0,0,1,7.25,12.42A50.86,50.86,0,0,1,233,453.39c.58,4.29.08,7.37-1.62,8.07h0S242.1,460,249,453.1C252.06,451.81,251.21,442.7,247.06,432.75Z"></path> <path class="cls-23" d="M235.54,419.86c2.21-.93,5.84,2.43,9.25,8.05C241,420.64,236.52,416,234,417.06c0,0-8.57,0-17.62,8.37,1-.4,2.2,0,3.57,1.08C228.2,419.85,235.54,419.86,235.54,419.86Z"></path> <path class="cls-24" d="M234.56,456.18A50.86,50.86,0,0,0,231,443.91a56.78,56.78,0,0,0-3.86-7.65c.8,1.51,1.57,3.14,2.29,4.86A50.86,50.86,0,0,1,233,453.39c.58,4.29.08,7.37-1.62,8.07h0a30,30,0,0,0,3.35-.72A19.55,19.55,0,0,0,234.56,456.18Z"></path> <path class="cls-23" d="M236.37,452.7a54.6,54.6,0,0,0-3.81-13.22,51.27,51.27,0,0,0-7.81-13.39c-1.75-2-3.41-3.28-4.81-3.59a35.89,35.89,0,0,0-3.59,2.93c1.48-.62,3.59.67,5.85,3.27a47.57,47.57,0,0,1,7.25,12.42A50.86,50.86,0,0,1,233,453.39c.58,4.29.08,7.37-1.62,8.07h0a32.73,32.73,0,0,0,4.33-1C236.64,459,236.86,456.25,236.37,452.7Z"></path> <path class="cls-5" d="M232.75,451.91l-7.68,3.34-1.37.59-33.2,14.45a12.48,12.48,0,0,1-17-7.87c-.09-.3-.17-.61-.24-.92l-.06-.29c-.07-.4-.13-.8-.17-1.2a11.24,11.24,0,0,1,0-1.74q0-.34.06-.69c0-.2,0-.4.08-.6a.43.43,0,0,1,0-.11c0-.12,0-.24.07-.35a12.45,12.45,0,0,1,6.8-8.94l34-16.49.46-.22,6.68-3.25c.34.33.67.69,1,1.08a47.57,47.57,0,0,1,7.25,12.42,58.38,58.38,0,0,1,2.3,6.53A43,43,0,0,1,232.75,451.91Z"></path> <path class="cls-3" d="M232.75,451.91l-7.68,3.34-1.37.59-33.2,14.45a12.48,12.48,0,0,1-17-7.87c-.09-.3-.17-.61-.24-.92l-.06-.29c-.07-.4-.13-.8-.17-1.2a14.44,14.44,0,0,1,0-1.74q0-.34.06-.69c0-.2,0-.4.08-.6a.43.43,0,0,1,0-.11c0-.13,0-.25.06-.38a0,0,0,0,0,0,0,12.25,12.25,0,0,0,.79,2.59,12.51,12.51,0,0,0,16.45,6.48l30.88-13.43,3.69-1.61,6.68-2.9A43,43,0,0,1,232.75,451.91Z"></path> <path class="cls-21" d="M161.4,444.91l-4.16.69a8.94,8.94,0,0,0-7.38,7.4c-1,6.08-2.07,15.57-1.13,24.3,1.54,14.31,7,21.58,7.21,28.19a23.38,23.38,0,0,0,.91,5.91,4.55,4.55,0,0,0,4.72,3.22l4.61-.38s1.38-7.65.83-12.28c-1.1-9.25-7.77-16.29-4.77-19.81S161.4,444.91,161.4,444.91Z"></path> <path class="cls-20" d="M166.18,509.75l-4.61.38c-2.85.23-4.33-.05-5.17-.59a17.55,17.55,0,0,0,.45,1.86,4.55,4.55,0,0,0,4.72,3.22l4.61-.38s1.28-7.12.87-11.77A71.51,71.51,0,0,1,166.18,509.75Z"></path> <path class="cls-25" d="M187.48,457.43s8.1-.83,10.74,5.28-.5,12.06-5.37,17.67-13.5,18.33-17.28,19-7.74-18.83-7.74-18.83Z"></path> <path class="cls-26" d="M198.22,462.71c-1.64-3.78-5.37-4.9-8-5.21a7.88,7.88,0,0,1,3.19,3.64c2.64,6.11-.5,12.06-5.37,17.67-4.14,4.78-11,14.67-15.28,17.94.9,1.71,1.85,2.79,2.78,2.63,3.78-.67,12.41-13.38,17.28-19S200.86,468.82,198.22,462.71Z"></path> <path class="cls-8" d="M179.2,443.6l-17.81,1.11s-4.13,17.45-2.59,31.77,7,21.57,7.22,28.18.16,9.58.16,9.58,12-3.86,10.9-13.1-7.77-16.3-4.77-19.82,7.63-8.15,12.48-15.63,5.94-8.59,4.4-11c-1.09-1.72-4.5-6.63-6.39-9.36A4.06,4.06,0,0,0,179.2,443.6Z"></path> <path class="cls-25" d="M176.9,500c-1.64,6.85-10.72,9.77-10.72,9.77h0c.06,3.08,0,4.51,0,4.51s12-3.86,10.9-13.1C177,500.74,177,500.36,176.9,500Z"></path> <path class="cls-21" d="M294.08,448.14l3.73,2a9.12,9.12,0,0,1,4.64,9.59c-1,6.29-3.05,16-6.75,24.28-6.08,13.62-13.6,19.08-15.93,25.52A25.06,25.06,0,0,1,277,515a4.55,4.55,0,0,1-5.53,1.7l-4.26-1.8s1.15-8,3.17-12.35c4-8.77,12.63-13.63,10.91-18S294.08,448.14,294.08,448.14Z"></path> <path class="cls-20" d="M275,513.34l-6.36-2.53a77.51,77.51,0,0,1,1.65-7.92c-1.93,4.43-3,12.05-3,12.05l4.26,1.8A4.55,4.55,0,0,0,277,515c.3-.45.62-1,.95-1.55A4.41,4.41,0,0,1,275,513.34Z"></path> <path class="cls-25" d="M265.26,452.37s-7.43-3.33-11.91,1.87-3.41,12-.58,19.07,6.93,22.25,10.31,24.07,13.41-16.14,13.41-16.14Z"></path> <path class="cls-26" d="M257.36,472.59c-2.83-7-3.89-13.87.58-19.07a8.1,8.1,0,0,1,2.94-2.17,8.76,8.76,0,0,0-7.53,2.89c-4.47,5.2-3.41,12-.58,19.07s6.93,22.25,10.31,24.07c.84.45,2.09-.32,3.49-1.73C263.43,491.71,259.88,478.89,257.36,472.59Z"></path> <path class="cls-8" d="M277.58,441.32,294.15,448s-1.69,18.47-7.76,32.09-13.59,19.08-15.93,25.52-3.24,9.38-3.24,9.38-10.17-7.53-6.14-16.29,12.63-13.64,10.91-18-4.63-10.39-6.83-19.27-2.88-10.31-.64-12.21c1.59-1.35,6.41-5.13,9.09-7.23A4,4,0,0,1,277.58,441.32Z"></path> <path class="cls-25" d="M263.22,495.08c.13-.28.26-.55.4-.81a27.55,27.55,0,0,0-2.54,4.38c-4,8.76,6.14,16.29,6.14,16.29s.41-1.35,1.39-4.19C266.34,508.8,259.88,502.37,263.22,495.08Z"></path> <path class="cls-8" d="M274.72,498.51a15.9,15.9,0,0,0-1,1.39C274,499.44,274.37,499,274.72,498.51Z"></path> <circle class="cls-27" cx="53.7" cy="171.6" r="52.7"></circle> <circle class="cls-28" cx="53.7" cy="171.6" r="52.7"></circle> <circle class="cls-29" cx="53.7" cy="171.6" r="52.7"></circle> <circle class="cls-28" cx="358.75" cy="144.4" r="56.3"></circle> <circle class="cls-28" cx="152.61" cy="79.87" r="42.49"></circle> <circle class="cls-28" cx="260.5" cy="73.62" r="29.72"></circle> <circle class="cls-29" cx="358.75" cy="144.4" r="56.3"></circle> <circle class="cls-29" cx="152.61" cy="79.87" r="42.49"></circle> <circle class="cls-29" cx="260.5" cy="73.62" r="29.72"></circle> <path class="cls-16" d="M76.88,192.2h0a421.68,421.68,0,0,1-42.37,0h0a7.4,7.4,0,0,1-7-6.54h0a95.73,95.73,0,0,1,0-22.57h0a7.41,7.41,0,0,1,7-6.54h0q21.17-1.05,42.37,0h0a7.42,7.42,0,0,1,7,6.54h0a96.81,96.81,0,0,1,0,22.57h0A7.41,7.41,0,0,1,76.88,192.2Z"></path> <path class="cls-30" d="M74.89,189.67h0a421.88,421.88,0,0,1-42.38,0h0a7.42,7.42,0,0,1-7-6.53h0a96.81,96.81,0,0,1,0-22.57h0a7.42,7.42,0,0,1,7-6.54h0a421.88,421.88,0,0,1,42.38,0h0a7.41,7.41,0,0,1,7,6.54h0a96.81,96.81,0,0,1,0,22.57h0A7.41,7.41,0,0,1,74.89,189.67Z"></path> <path class="cls-31" d="M27.33,184.88a95.73,95.73,0,0,1,0-22.57,7.4,7.4,0,0,1,7-6.54,421.68,421.68,0,0,1,42.37,0,7.35,7.35,0,0,1,3.8,1.28,7.38,7.38,0,0,0-5.6-3h0a421.88,421.88,0,0,0-42.38,0h0a7.42,7.42,0,0,0-7,6.54,96.81,96.81,0,0,0,0,22.57,7.41,7.41,0,0,0,3.19,5.25A7.28,7.28,0,0,1,27.33,184.88Z"></path> <path class="cls-32" d="M15.2,153.5a42.64,42.64,0,0,1,4.35-7.27"></path> <path class="cls-32" d="M23.85,141.3a42.44,42.44,0,0,1,15.52-9.76"></path> <path class="cls-33" d="M53.7,118.9a52.7,52.7,0,1,0,52.7,52.7A52.69,52.69,0,0,0,53.7,118.9Zm-7.4,83.68a40,40,0,1,1,40-40A40,40,0,0,1,46.3,202.58Z"></path> <polygon class="cls-21" points="62.68 171.85 46.3 161.21 46.3 182.5 62.68 171.85"></polygon> <path class="cls-34" d="M206.88,151.09a22.11,22.11,0,0,0,2.39,4.54c1.38,2,3.21,3.94,3.47,6.5.3,2.89-1.77,5-4.33,5.92a20.41,20.41,0,0,1-17.32-1.79c-5.4-3.41-9.26-9.77-8.51-16.21.68-5.93,6.57-9.56,12.18-9.56a13.11,13.11,0,0,1,9.16,3.57c1.5,1.47,1.79,3.26,2.34,5.17C206.44,149.86,206.65,150.48,206.88,151.09Z"></path> <ellipse class="cls-34" cx="225.58" cy="165.63" rx="7.32" ry="5.12"></ellipse> <path class="cls-35" d="M219.44,351.46l-1.51-1.63-3.25-3.52a4.32,4.32,0,0,0-7.29,1.64l-2.08,6.7a4.15,4.15,0,0,0,0,2.63,4.31,4.31,0,0,0,.93,1.58,4.26,4.26,0,0,0,3.15,1.39,4.58,4.58,0,0,0,1-.11l6.84-1.54a4.32,4.32,0,0,0,2.22-7.14Zm-1,3.62a2.31,2.31,0,0,1-1.7,1.57l-6.84,1.54a2.29,2.29,0,0,1-2.21-.69,2,2,0,0,1-.34-.49,2.22,2.22,0,0,1-.17-1.77l2.08-6.69a2.32,2.32,0,0,1,3.92-.88l3.5,3.8,1.25,1.35A2.28,2.28,0,0,1,218.48,355.08Z"></path> <path class="cls-36" d="M208.34,348.25l-2.08,6.69a3.31,3.31,0,0,0,3.9,4.22l6.83-1.54a3.31,3.31,0,0,0,1.71-5.48L214,347A3.32,3.32,0,0,0,208.34,348.25Z"></path> <path class="cls-37" d="M209.4,349.54l-1.54,4.94a2.45,2.45,0,0,0,2.88,3.12l5-1.14a2.45,2.45,0,0,0,1.26-4l-3.51-3.8A2.45,2.45,0,0,0,209.4,349.54Z"></path> <path class="cls-38" d="M217.93,349.83a14.74,14.74,0,0,1-1.21,1.64,16.49,16.49,0,0,1-9.33,5.54,15.68,15.68,0,0,1-2.06.27,4.15,4.15,0,0,1,0-2.63l2.08-6.7a4.32,4.32,0,0,1,7.29-1.64Z"></path> <circle class="cls-38" cx="211.76" cy="350.35" r="1.91"></circle> <rect class="cls-16" x="134.79" y="61.98" width="39.4" height="39.4" rx="0.92" transform="translate(-15.13 39.66) rotate(-13.95)"></rect> <rect class="cls-20" x="132.77" y="60.48" width="39.4" height="39.4" rx="0.92" transform="translate(-14.83 39.13) rotate(-13.95)"></rect> <path class="cls-21" d="M130.81,68.09a.92.92,0,0,1,.68-1.11l35.79-8.9-.22-.87a.92.92,0,0,0-1.12-.68L129.5,65.59a.9.9,0,0,0-.67,1.11l9,36.45a.92.92,0,0,0,1.12.67l.65-.16Z"></path> <line class="cls-39" x1="140.02" y1="80.04" x2="164.04" y2="74.07"></line> <line class="cls-40" x1="141.58" y1="86.31" x2="165.6" y2="80.34"></line> <line class="cls-39" x1="143.13" y1="92.57" x2="157.31" y2="89.05"></line> <line class="cls-39" x1="138.46" y1="73.77" x2="162.48" y2="67.81"></line> <path class="cls-33" d="M152.61,37.38A42.49,42.49,0,1,0,195.1,79.87,42.5,42.5,0,0,0,152.61,37.38Zm-4.16,70.19a34.08,34.08,0,1,1,34.07-34.08A34.08,34.08,0,0,1,148.45,107.57Z"></path> <path class="cls-32" d="M142.12,47.13c1-.32,2-.6,3.07-.83"></path> <path class="cls-32" d="M129.48,54.45a34.06,34.06,0,0,1,9.41-6.1"></path> <rect class="cls-16" x="249.37" y="62.82" width="24.54" height="24.54" rx="5.12" transform="translate(20.66 -51.49) rotate(11.7)"></rect> <rect class="cls-20" x="248.46" y="61.22" width="24.54" height="24.54" rx="5.12" transform="translate(20.31 -51.34) rotate(11.7)"></rect> <path class="cls-21" d="M248.29,79.56l2.9-14a5.12,5.12,0,0,1,6.06-4l14,2.9A5,5,0,0,1,273.9,66a5.12,5.12,0,0,0-3.68-3l-14-2.9a5.14,5.14,0,0,0-6.06,4l-2.89,14a5.1,5.1,0,0,0,1.32,4.59A5.1,5.1,0,0,1,248.29,79.56Z"></path> <path class="cls-16" d="M261.28,82a2,2,0,0,1-1.27-.86l-6.09-9.27a2,2,0,0,1,3.35-2.2l5,7.6,14.29-9.38a2,2,0,0,1,2.19,3.34l-16,10.48A2,2,0,0,1,261.28,82Z"></path> <path class="cls-30" d="M260.5,80.81a2,2,0,0,1-1.26-.86L253.38,71a2,2,0,1,1,3.34-2.19l4.76,7.24,14.29-9.38A2,2,0,1,1,278,70L262,80.52A2,2,0,0,1,260.5,80.81Z"></path> <path class="cls-31" d="M253.64,69.77a2,2,0,0,1,2.77.57l4.76,7.25,14.29-9.39a2,2,0,0,1,2.77.58,2.17,2.17,0,0,1,.29.71,2,2,0,0,0-2.75-2.79l-14.29,9.38-4.76-7.24a2,2,0,0,0-3.63,1.47A2,2,0,0,1,253.64,69.77Z"></path> <path class="cls-33" d="M279.53,50.79c-.55-.46-1.11-.88-1.68-1.29l.33.26a24.3,24.3,0,1,1-13.13-5.51,29.71,29.71,0,1,0,14.48,6.54Z"></path> <circle class="cls-41" cx="62.68" cy="70.79" r="17.4"></circle> <path class="cls-42" d="M62.68,53.4a17.84,17.84,0,0,0-2.32.17,13,13,0,1,1-14.9,14.9,17.72,17.72,0,0,0-.17,2.32A17.4,17.4,0,1,0,62.68,53.4Z"></path> <circle class="cls-41" cx="330.04" cy="51.4" r="17.4"></circle> <path class="cls-42" d="M346,44.45a13.52,13.52,0,0,1,.57,3.9A13.71,13.71,0,1,1,335.83,35,17.42,17.42,0,1,0,346,44.45Z"></path> <circle class="cls-41" cx="210.12" cy="12.97" r="12.97"></circle> <path class="cls-42" d="M210.12,0c-.22,0-.43,0-.64,0a8.74,8.74,0,1,1-5.92,1.76A13,13,0,1,0,210.12,0Z"></path> <g class="cls-43"> <path class="cls-21" d="M62.68,55.4A15.4,15.4,0,1,1,47.29,70.79,15.41,15.41,0,0,1,62.68,55.4m0-2a17.4,17.4,0,1,0,17.4,17.39A17.39,17.39,0,0,0,62.68,53.4Z"></path> </g> <g class="cls-43"> <path class="cls-21" d="M330,36a15.4,15.4,0,1,1-15.39,15.4A15.42,15.42,0,0,1,330,36m0-2a17.4,17.4,0,1,0,17.4,17.4A17.39,17.39,0,0,0,330,34Z"></path> </g> <g class="cls-43"> <path class="cls-21" d="M210.12,2a11,11,0,1,1-11,11,11,11,0,0,1,11-11m0-2a13,13,0,1,0,13,13,13,13,0,0,0-13-13Z"></path> </g> <path class="cls-16" d="M388,124.49v44.1a5.23,5.23,0,0,1-5.22,5.23H338.71a5.23,5.23,0,0,1-5.22-5.23v-44.1a5.22,5.22,0,0,1,5.22-5.22h44.11A5.22,5.22,0,0,1,388,124.49Z"></path> <path class="cls-20" d="M386,122.56v44.1a5.23,5.23,0,0,1-5.22,5.23H336.7a5.23,5.23,0,0,1-5.22-5.23v-44.1a5.22,5.22,0,0,1,5.22-5.22h44.11A5.22,5.22,0,0,1,386,122.56Z"></path> <path class="cls-15" d="M359.33,112.48c-6,.24-12.47,3.06-15.18,8.58-2.36,4.81-1.11,10.2-1.71,15.31-.83,7-6.43,12.34-7.1,19.22a15,15,0,0,0,1.79,8.13,11.36,11.36,0,0,0,3.27,4.2,12,12,0,0,0,5.94,2c4.53.48,9.07-.14,13.58-.59,2.09-.21,4.16-.2,6.25-.38a36.41,36.41,0,0,1,6.92-.27c3.53.35,7.64-.89,9.11-4.43,1.63-3.92-.46-8.13-1.62-11.87-2.13-6.88-3.12-14.18-3.94-21.32a38.43,38.43,0,0,0-1.46-8,15.71,15.71,0,0,0-14.68-10.58C360.11,112.45,359.72,112.46,359.33,112.48Z"></path> <path class="cls-30" d="M379.12,171.89H337.26a20.45,20.45,0,0,1,19.86-15.58h2.14A20.46,20.46,0,0,1,379.12,171.89Z"></path> <ellipse class="cls-3" cx="346.57" cy="138.32" rx="1.98" ry="2.48"></ellipse> <ellipse class="cls-3" cx="369.64" cy="138.32" rx="1.98" ry="2.48"></ellipse> <path class="cls-3" d="M353.8,150.94v7.36c0,.44,1.93.79,4.33.79s4.35-.35,4.35-.79v-7.36Z"></path> <path class="cls-5" d="M369.67,139.8c0,8.4-5.16,15.21-11.53,15.21s-11.53-6.81-11.53-15.21A87.18,87.18,0,0,1,348,124.59l13.14-3.43,7.27,3.43S369.67,136.5,369.67,139.8Z"></path> <path class="cls-3" d="M358.14,153.82c-6.26,0-11.36-6.59-11.52-14.8,0,.26,0,.52,0,.78,0,8.4,5.16,15.21,11.53,15.21s11.53-6.81,11.53-15.21c0-.15,0-.33,0-.52C369.4,147.37,364.34,153.82,358.14,153.82Z"></path> <rect class="cls-3" x="357.03" y="137.4" width="2.3" height="4.02" rx="1.15"></rect> <rect class="cls-16" x="352.32" y="135.36" width="1.9" height="3" rx="0.95"></rect> <rect class="cls-16" x="362.56" y="135.36" width="1.9" height="3" rx="0.95"></rect> <path class="cls-15" d="M354.06,132.87a.58.58,0,0,0,.38-1,2.05,2.05,0,0,0-3.2.52.32.32,0,0,0,.28.49Z"></path> <path class="cls-15" d="M362.13,132.87a.58.58,0,0,1-.38-1,2,2,0,0,1,1.39-.55,2.06,2.06,0,0,1,1.81,1.07.33.33,0,0,1-.28.49Z"></path> <path class="cls-16" d="M361.39,145.66a3.93,3.93,0,0,1-2.45,1.25,3.86,3.86,0,0,1-2.66-.67.39.39,0,0,1,.44-.64,3.11,3.11,0,0,0,4.09-.47.39.39,0,0,1,.55,0A.41.41,0,0,1,361.39,145.66Z"></path> <path class="cls-15" d="M359.34,126.18l1.48-2.57s.17,4.41.59,6.83c8.32-.12,10.66-.93,10.66-.93S371,118,358.8,117.74s-13.94,11.77-13.94,11.77a72.09,72.09,0,0,0,12.19.93C357.58,129.38,358.43,127.74,359.34,126.18Z"></path> <circle class="cls-15" cx="333.12" cy="119.68" r="5"></circle> <circle class="cls-30" cx="333.12" cy="119.68" r="3.07"></circle> <path class="cls-33" d="M358.75,88.1a56.3,56.3,0,1,0,56.3,56.3A56.3,56.3,0,0,0,358.75,88.1Zm3.92,96.56a46.95,46.95,0,1,1,46.95-46.95A46.95,46.95,0,0,1,362.67,184.66Z"></path> </svg> 