<svg id="visual" viewBox="0 0 900 600" width="900" height="600" xmlns="http://www.w3.org/2000/svg" xmlns:xlink="http://www.w3.org/1999/xlink" version="1.1"><path d="M0 258L18.8 254.3C37.7 250.7 75.3 243.3 112.8 217.7C150.3 192 187.7 148 225.2 139.8C262.7 131.7 300.3 159.3 337.8 164.5C375.3 169.7 412.7 152.3 450.2 141.3C487.7 130.3 525.3 125.7 562.8 140.3C600.3 155 637.7 189 675.2 211.3C712.7 233.7 750.3 244.3 787.8 241C825.3 237.7 862.7 220.3 881.3 211.7L900 203L900 0L881.3 0C862.7 0 825.3 0 787.8 0C750.3 0 712.7 0 675.2 0C637.7 0 600.3 0 562.8 0C525.3 0 487.7 0 450.2 0C412.7 0 375.3 0 337.8 0C300.3 0 262.7 0 225.2 0C187.7 0 150.3 0 112.8 0C75.3 0 37.7 0 18.8 0L0 0Z" fill="#0066FF" stroke-linecap="round" stroke-linejoin="miter"></path></svg>